<?xml version="1.0" encoding="utf-8"?>
<!DOCTYPE svg PUBLIC "-//W3C//DTD SVG 1.0//EN" "http://www.w3.org/TR/2001/REC-SVG-20010904/DTD/svg10.dtd">
<svg width="436pt" height="327pt" viewBox="0 0 4360 3270"><rect x="40" y="30" width="4320" height="3240" style="fill:silver;"/><rect x="3" y="3" width="4314" height="3234" style="fill:white; stroke-width:6; stroke:black"/><g style="fill:#FFFFFF; stroke-width:15; stroke:black"><rect x="40" y="40" width="4240" height="3160"/></g><g style="fill:#000080; font-family:Times New Roman;font-style:italic; font-size:180; text-anchor:end;"><text id="Heading" x="4100" y="256">Distribution Java Source Statements</text><text x="4100" y="456">per Function (NCSS)</text></g><g transform="translate(190 640) rotate(-90)" style="fill:#008080; font-family:Times New Roman;font-size:100; text-anchor:end; "><text>Java NCSS</text></g><g style="fill:#008000; font-family:Arial;font-size:100;"><text id="Notes" x="2535" y="1080">Average Java NCSS = 
       5.18</text><text x="2535" y="1200">Total Functions = 
      2247</text><text x="2535" y="1320">Total Java NCSS = 
      11642</text></g><text x="4100" y="3110" style="fill:#008080; font-family:Times New Roman;font-size:100; text-anchor:end;">Functions</text><g style="font-family:Times New Roman;font-size:80; text-anchor:middle;"><text x="464" y="2970"> 0%</text><text x="814" y="2970">10%</text><text x="1164" y="2970">20%</text><text x="1514" y="2970">30%</text><text x="1864" y="2970">40%</text><text x="2214" y="2970">50%</text><text x="2564" y="2970">60%</text><text x="2914" y="2970">70%</text><text x="3264" y="2970">80%</text><text x="3614" y="2970">90%</text><text x="3964" y="2970">100%</text></g><path style="stroke:#000000; stroke-width:6" d="M 464,2842 L 464,2881 z M 814,2842 L 814,2881 z M 1164,2842 L 1164,2881 z M 1514,2842 L 1514,2881 z M 1864,2842 L 1864,2881 z M 2214,2842 L 2214,2881 z M 2564,2842 L 2564,2881 z M 2914,2842 L 2914,2881 z M 3264,2842 L 3264,2881 z M 3614,2842 L 3614,2881 z M 3964,2842 L 3964,2881 z  M 3964,2842 L 464,2842 z"/><path style="stroke:#000000; stroke-width:6" d="M 464,2842 L 464,300 z"/><path style="stroke:#000000; stroke-width:6" d="M 434,2842 L 463,2842 z"/><g style="font-family:Times New Roman;font-size:80; text-anchor:end;"><text x="424" y="2842">0</text></g><g style="fill:#DBDBED;stroke-width:4; stroke:black"><rect x="464" y="2642" width="2371" height="176"/></g><path style="stroke:#000000; stroke-width:6" d="M 434,2622 L 463,2622 z"/><g style="font-family:Times New Roman;font-size:80; text-anchor:end;"><text x="424" y="2622">3</text></g><g style="fill:#DBDBED;stroke-width:4; stroke:black"><rect x="464" y="2422" width="330" height="176"/></g><path style="stroke:#000000; stroke-width:6" d="M 434,2402 L 463,2402 z"/><g style="font-family:Times New Roman;font-size:80; text-anchor:end;"><text x="424" y="2402">6</text></g><g style="fill:#DBDBED;stroke-width:4; stroke:black"><rect x="464" y="2202" width="162" height="176"/></g><path style="stroke:#000000; stroke-width:6" d="M 434,2182 L 463,2182 z"/><g style="font-family:Times New Roman;font-size:80; text-anchor:end;"><text x="424" y="2182">9</text></g><g style="fill:#DBDBED;stroke-width:4; stroke:black"><rect x="464" y="1982" width="154" height="176"/></g><path style="stroke:#000000; stroke-width:6" d="M 434,1962 L 463,1962 z"/><g style="font-family:Times New Roman;font-size:80; text-anchor:end;"><text x="424" y="1962">12</text></g><g style="fill:#DBDBED;stroke-width:4; stroke:black"><rect x="464" y="1762" width="139" height="176"/></g><path style="stroke:#000000; stroke-width:6" d="M 434,1742 L 463,1742 z"/><g style="font-family:Times New Roman;font-size:80; text-anchor:end;"><text x="424" y="1742">15</text></g><g style="fill:#DBDBED;stroke-width:4; stroke:black"><rect x="464" y="1542" width="129" height="176"/></g><path style="stroke:#000000; stroke-width:6" d="M 434,1522 L 463,1522 z"/><g style="font-family:Times New Roman;font-size:80; text-anchor:end;"><text x="424" y="1522">18</text></g><g style="fill:#DBDBED;stroke-width:4; stroke:black"><rect x="464" y="1322" width="45" height="176"/></g><path style="stroke:#000000; stroke-width:6" d="M 434,1302 L 463,1302 z"/><g style="font-family:Times New Roman;font-size:80; text-anchor:end;"><text x="424" y="1302">21</text></g><g style="fill:#DBDBED;stroke-width:4; stroke:black"><rect x="464" y="1102" width="25" height="176"/></g><path style="stroke:#000000; stroke-width:6" d="M 434,1082 L 463,1082 z"/><g style="font-family:Times New Roman;font-size:80; text-anchor:end;"><text x="424" y="1082">24</text></g><g style="fill:#DBDBED;stroke-width:4; stroke:black"><rect x="464" y="882" width="34" height="176"/></g><path style="stroke:#000000; stroke-width:6" d="M 434,862 L 463,862 z"/><g style="font-family:Times New Roman;font-size:80; text-anchor:end;"><text x="424" y="862">27</text></g><g style="fill:#DBDBED;stroke-width:4; stroke:black"><rect x="464" y="662" width="23" height="176"/></g><path style="stroke:#000000; stroke-width:6" d="M 434,642 L 463,642 z"/><g style="font-family:Times New Roman;font-size:80; text-anchor:end;"><text x="424" y="642">30</text></g><g style="fill:#DBDBED;stroke-width:4; stroke:black"><rect x="464" y="442" width="87" height="176"/></g></svg>